<mxfile host="app.diagrams.net" modified="2023-08-19T13:29:22.455Z" agent="Mozilla/5.0 (Macintosh; Intel Mac OS X 10_15_7) AppleWebKit/537.36 (KHTML, like Gecko) Chrome/115.0.0.0 Safari/537.36" version="21.6.8" etag="8uBSHaq8HPiU1gkvfMQd" type="github">
  <diagram name="Page-1" id="XfGfekrp25Q_m2-Chc8V">
    <mxGraphModel>
      <root>
        <mxCell id="0" />
        <mxCell id="1" parent="0" />
      </root>
    </mxGraphModel>
  </diagram>
</mxfile>
